<svg width="24" height="24" xmlns="http://www.w3.org/2000/svg" fill="tomato" stroke="none"><path fill="tomato"  d="M17 12C17 12.2305 16.9233 12.4271 16.764 12.6034L12.1622 17.7763C12.0383 17.9254 11.8732 18 11.6844 18C11.3009 18 11 17.661 11 17.2136C11 16.9966 11.0767 16.8 11.2065 16.6508L15.354 12L11.2065 7.34915C11.0767 7.19322 11 6.99661 11 6.77966C11 6.33898 11.3009 6 11.6844 6C11.8732 6 12.0383 6.07458 12.1622 6.22373L16.764 11.3966C16.9233 11.5729 16.9941 11.7695 17 12Z"></path><path d="M13 12C13 12.2305 12.9233 12.4271 12.764 12.6034L8.16224 17.7763C8.03835 17.9254 7.87316 18 7.68437 18C7.30089 18 7 17.661 7 17.2136C7 16.9966 7.0767 16.8 7.20649 16.6508L11.354 12L7.20649 7.34915C7.0767 7.19322 7 6.99661 7 6.77966C7 6.33898 7.30089 6 7.68437 6C7.87316 6 8.03835 6.07458 8.16224 6.22373L12.764 11.3966C12.9233 11.5729 12.9941 11.7695 13 12Z"></path></svg>